%YAML 1.1
%TAG !u! tag:unity3d.com,2011:
--- !u!43 &4300000
Mesh:
  m_ObjectHideFlags: 0
  m_CorrespondingSourceObject: {fileID: 0}
  m_PrefabInstance: {fileID: 0}
  m_PrefabAsset: {fileID: 0}
  m_Name: ChoppingLog_22Hull
  serializedVersion: 10
  m_SubMeshes:
  - serializedVersion: 2
    firstByte: 0
    indexCount: 126
    topology: 0
    baseVertex: 0
    firstVertex: 0
    vertexCount: 23
    localAABB:
      m_Center: {x: 0.013912775, y: 0.19761011, z: 0.005169384}
      m_Extent: {x: 0.24062306, y: 0.20086178, z: 0.25300604}
  m_Shapes:
    vertices: []
    shapes: []
    channels: []
    fullWeights: []
  m_BindPose: []
  m_BoneNameHashes: 
  m_RootBoneNameHash: 0
  m_BonesAABB: []
  m_VariableBoneCountWeights:
    m_Data: 
  m_MeshCompression: 0
  m_IsReadable: 1
  m_KeepVertices: 1
  m_KeepIndices: 1
  m_IndexFormat: 0
  m_IndexBuffer: 0500010006000c0003000b000c000b000e000800070006000800060000001400120010001400100013001400130015001400150016000a00090016000a00160015000a00070008000a0008000900040001000500040003000100020001000300020003000c000200000006000200060001000f000b0003000f00030004000f00040005000f00050006000f00060007000f0007000a000f000a0015000f00150013000f00130010000d000e000b000d000b000f000d00120014000d00140016000d00160009000d00090008000d00080000000d00000002000d0002000c000d000c000e00110012000d0011000d000f0011000f001000110010001200
  m_VertexData:
    serializedVersion: 3
    m_VertexCount: 23
    m_Channels:
    - stream: 0
      offset: 0
      format: 0
      dimension: 3
    - stream: 0
      offset: 0
      format: 0
      dimension: 0
    - stream: 0
      offset: 0
      format: 0
      dimension: 0
    - stream: 0
      offset: 0
      format: 0
      dimension: 0
    - stream: 0
      offset: 0
      format: 0
      dimension: 0
    - stream: 0
      offset: 0
      format: 0
      dimension: 0
    - stream: 0
      offset: 0
      format: 0
      dimension: 0
    - stream: 0
      offset: 0
      format: 0
      dimension: 0
    - stream: 0
      offset: 0
      format: 0
      dimension: 0
    - stream: 0
      offset: 0
      format: 0
      dimension: 0
    - stream: 0
      offset: 0
      format: 0
      dimension: 0
    - stream: 0
      offset: 0
      format: 0
      dimension: 0
    - stream: 0
      offset: 0
      format: 0
      dimension: 0
    - stream: 0
      offset: 0
      format: 0
      dimension: 0
    m_DataSize: 276
    _typelessdata: 89f2633c001a55bb922f843e1e090abe172a963e64e4563e1e090abe001a55bb64e4563ebd2668be8204cc3ebeb4aa3dc7571fbe8204cc3eb290393e582cdebd8204cc3efda55f3e89f2633c8204cc3e922f843e7087263e8204cc3e5ee4563e7087263e001a55bb5ee4563e8552823e001a55bbc0b4aa3d8552823e8204cc3ec0b4aa3dbd2668be8204cc3e3f8895bdbd2668be001a55bbbeb4aa3d20090abe001a55bb224e4cbebd2668be001a55bb3f8895bd20090abe8204cc3e224e4cbe70f2633c8204cc3ee5c87dbe4af86fbc2a84363e544874be70f2633c001a55bbe5c87dbe6a87263e8204cc3e264e4cbe6a87263e001a55bb264e4cbe8552823e8204cc3e458895bd8552823e001a55bb458895bd
  m_CompressedMesh:
    m_Vertices:
      m_NumItems: 0
      m_Range: 0
      m_Start: 0
      m_Data: 
      m_BitSize: 0
    m_UV:
      m_NumItems: 0
      m_Range: 0
      m_Start: 0
      m_Data: 
      m_BitSize: 0
    m_Normals:
      m_NumItems: 0
      m_Range: 0
      m_Start: 0
      m_Data: 
      m_BitSize: 0
    m_Tangents:
      m_NumItems: 0
      m_Range: 0
      m_Start: 0
      m_Data: 
      m_BitSize: 0
    m_Weights:
      m_NumItems: 0
      m_Data: 
      m_BitSize: 0
    m_NormalSigns:
      m_NumItems: 0
      m_Data: 
      m_BitSize: 0
    m_TangentSigns:
      m_NumItems: 0
      m_Data: 
      m_BitSize: 0
    m_FloatColors:
      m_NumItems: 0
      m_Range: 0
      m_Start: 0
      m_Data: 
      m_BitSize: 0
    m_BoneIndices:
      m_NumItems: 0
      m_Data: 
      m_BitSize: 0
    m_Triangles:
      m_NumItems: 0
      m_Data: 
      m_BitSize: 0
    m_UVInfo: 0
  m_LocalAABB:
    m_Center: {x: 0.013912775, y: 0.19761011, z: 0.005169384}
    m_Extent: {x: 0.24062306, y: 0.20086178, z: 0.25300604}
  m_MeshUsageFlags: 0
  m_BakedConvexCollisionMesh: 
  m_BakedTriangleCollisionMesh: 
  m_MeshMetrics[0]: 1
  m_MeshMetrics[1]: 1
  m_MeshOptimizationFlags: 1
  m_StreamData:
    offset: 0
    size: 0
    path: 
