%YAML 1.1
%TAG !u! tag:unity3d.com,2011:
--- !u!43 &4300000
Mesh:
  m_ObjectHideFlags: 0
  m_CorrespondingSourceObject: {fileID: 0}
  m_PrefabInstance: {fileID: 0}
  m_PrefabAsset: {fileID: 0}
  m_Name: MetalBarrel_16Hull
  serializedVersion: 10
  m_SubMeshes:
  - serializedVersion: 2
    firstByte: 0
    indexCount: 156
    topology: 0
    baseVertex: 0
    firstVertex: 0
    vertexCount: 28
    localAABB:
      m_Center: {x: 0, y: 0.42901456, z: 0}
      m_Extent: {x: 0.26810518, y: 0.41410857, z: 0.275}
  m_Shapes:
    vertices: []
    shapes: []
    channels: []
    fullWeights: []
  m_BindPose: []
  m_BoneNameHashes: 
  m_RootBoneNameHash: 0
  m_BonesAABB: []
  m_VariableBoneCountWeights:
    m_Data: 
  m_MeshCompression: 0
  m_IsReadable: 1
  m_KeepVertices: 1
  m_KeepIndices: 1
  m_IndexFormat: 0
  m_IndexBuffer: 040003000c0004000c0018001b00150017001b0017001a001b000f0011001b001100150019001a001700190017001600190016000400190004001800100012001100100011000f000d00070000000d000000140013000e000d0013000d001400130012001000130010000e00020001000a0002000a000b0002000b000c0002000c00030005000100020005000200030005000300040005000400160005001600170005001700150005001500110005001100120005001200130005001300140005001400000005000000060009000a000100090001000500080007000d0008000d000e0008000e001000080010000f0008000f001b0008001b001a0008001a001900080019001800080018000c0008000c000b0008000b000a0008000a000900080009000500080005000600080006000000080000000700
  m_VertexData:
    serializedVersion: 3
    m_VertexCount: 28
    m_Channels:
    - stream: 0
      offset: 0
      format: 0
      dimension: 3
    - stream: 0
      offset: 0
      format: 0
      dimension: 0
    - stream: 0
      offset: 0
      format: 0
      dimension: 0
    - stream: 0
      offset: 0
      format: 0
      dimension: 0
    - stream: 0
      offset: 0
      format: 0
      dimension: 0
    - stream: 0
      offset: 0
      format: 0
      dimension: 0
    - stream: 0
      offset: 0
      format: 0
      dimension: 0
    - stream: 0
      offset: 0
      format: 0
      dimension: 0
    - stream: 0
      offset: 0
      format: 0
      dimension: 0
    - stream: 0
      offset: 0
      format: 0
      dimension: 0
    - stream: 0
      offset: 0
      format: 0
      dimension: 0
    - stream: 0
      offset: 0
      format: 0
      dimension: 0
    - stream: 0
      offset: 0
      format: 0
      dimension: 0
    - stream: 0
      offset: 0
      format: 0
      dimension: 0
    m_DataSize: 336
    _typelessdata: 1545893eebd6573fcea57a3df35cf43debd6573f81b67dbe00000000ebd6573fcdcc8cbe035df4bdebd6573f7cb67dbeeb295cbeebd6573f22932fbee9295c3eebd6573f26932fbe1545893eebd6573fcfa57abd1545893e4038743ccea57a3d1545893e4038743ccfa57abde9295c3e4038743c26932fbef35cf43d4038743c81b67dbe000000004038743ccdcc8cbe035df4bd4038743c7cb67dbee9295c3e4038743c26932f3efc5cf43d4038743c7db67d3e065df4bd4038743c7cb67d3ef45732b34038743ccdcc8c3e065df4bdebd6573f7cb67d3ef45732b3ebd6573fcdcc8c3efc5cf43debd6573f7db67d3ee9295c3eebd6573f26932f3eeb295cbeebd6573f22932f3e154589beebd6573fc2a57abd154589beebd6573fc9a57a3deb295cbe4038743c22932fbe154589be4038743cc2a57abd154589be4038743cc9a57a3deb295cbe4038743c22932f3e
  m_CompressedMesh:
    m_Vertices:
      m_NumItems: 0
      m_Range: 0
      m_Start: 0
      m_Data: 
      m_BitSize: 0
    m_UV:
      m_NumItems: 0
      m_Range: 0
      m_Start: 0
      m_Data: 
      m_BitSize: 0
    m_Normals:
      m_NumItems: 0
      m_Range: 0
      m_Start: 0
      m_Data: 
      m_BitSize: 0
    m_Tangents:
      m_NumItems: 0
      m_Range: 0
      m_Start: 0
      m_Data: 
      m_BitSize: 0
    m_Weights:
      m_NumItems: 0
      m_Data: 
      m_BitSize: 0
    m_NormalSigns:
      m_NumItems: 0
      m_Data: 
      m_BitSize: 0
    m_TangentSigns:
      m_NumItems: 0
      m_Data: 
      m_BitSize: 0
    m_FloatColors:
      m_NumItems: 0
      m_Range: 0
      m_Start: 0
      m_Data: 
      m_BitSize: 0
    m_BoneIndices:
      m_NumItems: 0
      m_Data: 
      m_BitSize: 0
    m_Triangles:
      m_NumItems: 0
      m_Data: 
      m_BitSize: 0
    m_UVInfo: 0
  m_LocalAABB:
    m_Center: {x: 0, y: 0.42901456, z: 0}
    m_Extent: {x: 0.26810518, y: 0.41410857, z: 0.275}
  m_MeshUsageFlags: 0
  m_BakedConvexCollisionMesh: 
  m_BakedTriangleCollisionMesh: 
  m_MeshMetrics[0]: 1
  m_MeshMetrics[1]: 1
  m_MeshOptimizationFlags: 1
  m_StreamData:
    offset: 0
    size: 0
    path: 
