%YAML 1.1
%TAG !u! tag:unity3d.com,2011:
--- !u!43 &4300000
Mesh:
  m_ObjectHideFlags: 0
  m_CorrespondingSourceObject: {fileID: 0}
  m_PrefabInstance: {fileID: 0}
  m_PrefabAsset: {fileID: 0}
  m_Name: Tree_42Hull3
  serializedVersion: 10
  m_SubMeshes:
  - serializedVersion: 2
    firstByte: 0
    indexCount: 90
    topology: 0
    baseVertex: 0
    firstVertex: 0
    vertexCount: 17
    localAABB:
      m_Center: {x: 0.9601414, y: 2.498054, z: -0.5719102}
      m_Extent: {x: 0.96031046, y: 1.0311067, z: 0.7491583}
  m_Shapes:
    vertices: []
    shapes: []
    channels: []
    fullWeights: []
  m_BindPose: []
  m_BoneNameHashes: 
  m_RootBoneNameHash: 0
  m_BonesAABB: []
  m_VariableBoneCountWeights:
    m_Data: 
  m_MeshCompression: 0
  m_IsReadable: 1
  m_KeepVertices: 1
  m_KeepIndices: 1
  m_IndexFormat: 0
  m_IndexBuffer: 0c00010009000f0009000100000001000c000000030001000200010003000a000f0004000a0004000d000a000d000b000a000b0009000a0009000f00070009000b00070005000000070000000c0007000c000900080005000700080007000b000600030000000600000005000600050008000e0004000f000e000f0001000e00010002000e00020003000e0003000400100003000600100006000800100008000b0010000b000d0010000d000400100004000300
  m_VertexData:
    serializedVersion: 3
    m_VertexCount: 17
    m_Channels:
    - stream: 0
      offset: 0
      format: 0
      dimension: 3
    - stream: 0
      offset: 0
      format: 0
      dimension: 0
    - stream: 0
      offset: 0
      format: 0
      dimension: 0
    - stream: 0
      offset: 0
      format: 0
      dimension: 0
    - stream: 0
      offset: 0
      format: 0
      dimension: 0
    - stream: 0
      offset: 0
      format: 0
      dimension: 0
    - stream: 0
      offset: 0
      format: 0
      dimension: 0
    - stream: 0
      offset: 0
      format: 0
      dimension: 0
    - stream: 0
      offset: 0
      format: 0
      dimension: 0
    - stream: 0
      offset: 0
      format: 0
      dimension: 0
    - stream: 0
      offset: 0
      format: 0
      dimension: 0
    - stream: 0
      offset: 0
      format: 0
      dimension: 0
    - stream: 0
      offset: 0
      format: 0
      dimension: 0
    - stream: 0
      offset: 0
      format: 0
      dimension: 0
    m_DataSize: 204
    _typelessdata: 063cb93fc4c6c13f2be578bf5ed1f53f0b44f53f4a7788bf38daa83f23f017406e0ca8bf5880af3e30bfef3fc618a9bf46ee7d3fc5dd61400f524bbf69375c3feec4bb3ffba111bfd515833e2922d33f3d5280bf4597983f80b5ce3f0081473b808b8e3ea0bbdf3f813bb4be4afae43f042505408780353e92459b3ff24a4440c02fa9bdc185c03efe3c0440e091603df31bf33f399fe03f8ee7f1be3469ca3e94864040754412bfe0e3b33f2c605b40d56a79bfb229bc3fa6d75b4078cfd9be005031b932ad074052586ebf
  m_CompressedMesh:
    m_Vertices:
      m_NumItems: 0
      m_Range: 0
      m_Start: 0
      m_Data: 
      m_BitSize: 0
    m_UV:
      m_NumItems: 0
      m_Range: 0
      m_Start: 0
      m_Data: 
      m_BitSize: 0
    m_Normals:
      m_NumItems: 0
      m_Range: 0
      m_Start: 0
      m_Data: 
      m_BitSize: 0
    m_Tangents:
      m_NumItems: 0
      m_Range: 0
      m_Start: 0
      m_Data: 
      m_BitSize: 0
    m_Weights:
      m_NumItems: 0
      m_Data: 
      m_BitSize: 0
    m_NormalSigns:
      m_NumItems: 0
      m_Data: 
      m_BitSize: 0
    m_TangentSigns:
      m_NumItems: 0
      m_Data: 
      m_BitSize: 0
    m_FloatColors:
      m_NumItems: 0
      m_Range: 0
      m_Start: 0
      m_Data: 
      m_BitSize: 0
    m_BoneIndices:
      m_NumItems: 0
      m_Data: 
      m_BitSize: 0
    m_Triangles:
      m_NumItems: 0
      m_Data: 
      m_BitSize: 0
    m_UVInfo: 0
  m_LocalAABB:
    m_Center: {x: 0.9601414, y: 2.498054, z: -0.5719102}
    m_Extent: {x: 0.96031046, y: 1.0311067, z: 0.7491583}
  m_MeshUsageFlags: 0
  m_BakedConvexCollisionMesh: 
  m_BakedTriangleCollisionMesh: 
  m_MeshMetrics[0]: 1
  m_MeshMetrics[1]: 1
  m_MeshOptimizationFlags: 1
  m_StreamData:
    offset: 0
    size: 0
    path: 
