%YAML 1.1
%TAG !u! tag:unity3d.com,2011:
--- !u!43 &4300000
Mesh:
  m_ObjectHideFlags: 0
  m_CorrespondingSourceObject: {fileID: 0}
  m_PrefabInstance: {fileID: 0}
  m_PrefabAsset: {fileID: 0}
  m_Name: WoodenBarrel_32Hull
  serializedVersion: 10
  m_SubMeshes:
  - serializedVersion: 2
    firstByte: 0
    indexCount: 180
    topology: 0
    baseVertex: 0
    firstVertex: 0
    vertexCount: 32
    localAABB:
      m_Center: {x: -0.000000014901161, y: 0.27579576, z: 0}
      m_Extent: {x: 0.28253806, y: 0.2778954, z: 0.2825381}
  m_Shapes:
    vertices: []
    shapes: []
    channels: []
    fullWeights: []
  m_BindPose: []
  m_BoneNameHashes: 
  m_RootBoneNameHash: 0
  m_BonesAABB: []
  m_VariableBoneCountWeights:
    m_Data: 
  m_MeshCompression: 0
  m_IsReadable: 1
  m_KeepVertices: 1
  m_KeepIndices: 1
  m_IndexFormat: 0
  m_IndexBuffer: 1f001b001e001600140011001600110013001c0017001600040001001d000400030000000400000001000200060000000200000003000200100012000200120006000f00110012000f00120010000f00190013000f001300110018001a001300180013001900180019000f0018000f001000180010000200180002000300180003000400180004001d0018001d001a000e00140016000e0016001700050001001f0005001f001e0005001a001d0005001d00010008001b001f0008000a000c0008000c000b0008000b000e0008000e001700080017001c0008001c001b0007000a000800070008001f0007001f000100070001000000070000000600070006000900070009000c0007000c000a0015001a000500150005001e0015001e001b0015001b001c0015001c001600150016001300150013001a000d000b000c000d000c0009000d00090006000d00060012000d00120011000d00110014000d0014000e000d000e000b00
  m_VertexData:
    serializedVersion: 3
    m_VertexCount: 32
    m_Channels:
    - stream: 0
      offset: 0
      format: 0
      dimension: 3
    - stream: 0
      offset: 0
      format: 0
      dimension: 0
    - stream: 0
      offset: 0
      format: 0
      dimension: 0
    - stream: 0
      offset: 0
      format: 0
      dimension: 0
    - stream: 0
      offset: 0
      format: 0
      dimension: 0
    - stream: 0
      offset: 0
      format: 0
      dimension: 0
    - stream: 0
      offset: 0
      format: 0
      dimension: 0
    - stream: 0
      offset: 0
      format: 0
      dimension: 0
    - stream: 0
      offset: 0
      format: 0
      dimension: 0
    - stream: 0
      offset: 0
      format: 0
      dimension: 0
    - stream: 0
      offset: 0
      format: 0
      dimension: 0
    - stream: 0
      offset: 0
      format: 0
      dimension: 0
    - stream: 0
      offset: 0
      format: 0
      dimension: 0
    - stream: 0
      offset: 0
      format: 0
      dimension: 0
    m_DataSize: 384
    _typelessdata: 5ddf9c329443dc3ed5a8903e58944c3e9443dc3e53944c3e39d138beb4be0d3f39d1383e347a9532b4be0d3f80af823e3bd1383eb4be0d3f37d1383ed4a8903e9443dc3ea2df3fb155944cbe9443dc3e54944c3e5ddf9c32749af83dd5a8903e3bd1383e649a09bb37d1383e55944cbe749af83d54944c3e347a9532649a09bb80af823e80af82be649a09bb82d8473239d138be649a09bb39d1383ed5a890be749af83d98165e3239d138be649a09bb39d138be39d138beb4be0d3f39d138be80af82beb4be0d3f82d8473255944cbe9443dc3e54944cbed5a890be9443dc3e98165e325d34ddb19443dc3ed5a890be55944cbe749af83d54944cbe58944c3e749af83d54944cbe5d34ddb1749af83dd5a890be5bcda8b1649a09bb80af82be3bd1383eb4be0d3f38d138be5bcda8b1b4be0d3f80af82be58944c3e9443dc3e54944cbe80af823e649a09bbab7e30b13bd1383e649a09bb38d138be80af823eb4be0d3fab7e30b1d4a8903e749af83da2df3fb158944c3e749af83d53944c3e
  m_CompressedMesh:
    m_Vertices:
      m_NumItems: 0
      m_Range: 0
      m_Start: 0
      m_Data: 
      m_BitSize: 0
    m_UV:
      m_NumItems: 0
      m_Range: 0
      m_Start: 0
      m_Data: 
      m_BitSize: 0
    m_Normals:
      m_NumItems: 0
      m_Range: 0
      m_Start: 0
      m_Data: 
      m_BitSize: 0
    m_Tangents:
      m_NumItems: 0
      m_Range: 0
      m_Start: 0
      m_Data: 
      m_BitSize: 0
    m_Weights:
      m_NumItems: 0
      m_Data: 
      m_BitSize: 0
    m_NormalSigns:
      m_NumItems: 0
      m_Data: 
      m_BitSize: 0
    m_TangentSigns:
      m_NumItems: 0
      m_Data: 
      m_BitSize: 0
    m_FloatColors:
      m_NumItems: 0
      m_Range: 0
      m_Start: 0
      m_Data: 
      m_BitSize: 0
    m_BoneIndices:
      m_NumItems: 0
      m_Data: 
      m_BitSize: 0
    m_Triangles:
      m_NumItems: 0
      m_Data: 
      m_BitSize: 0
    m_UVInfo: 0
  m_LocalAABB:
    m_Center: {x: -0.000000014901161, y: 0.27579576, z: 0}
    m_Extent: {x: 0.28253806, y: 0.2778954, z: 0.2825381}
  m_MeshUsageFlags: 0
  m_BakedConvexCollisionMesh: 
  m_BakedTriangleCollisionMesh: 
  m_MeshMetrics[0]: 1
  m_MeshMetrics[1]: 1
  m_MeshOptimizationFlags: 1
  m_StreamData:
    offset: 0
    size: 0
    path: 
